<?xml version="1.0" encoding="utf-8"?>
<!-- Generator: Adobe Illustrator 19.2.0, SVG Export Plug-In . SVG Version: 6.00 Build 0)  -->
<!DOCTYPE svg PUBLIC "-//W3C//DTD SVG 1.1//EN" "http://www.w3.org/Graphics/SVG/1.1/DTD/svg11.dtd">
<svg version="1.1" id="Layer_1" xmlns="http://www.w3.org/2000/svg" xmlns:xlink="http://www.w3.org/1999/xlink" x="0px" y="0px"
	 viewBox="0 0 691.1 239.1" style="enable-background:new 0 0 691.1 239.1;" xml:space="preserve">
<style type="text/css">
	.st0{fill:#2AC5F4;}
	.st1{fill:#A3A5A8;}
</style>
<g>
	<g>
		<path class="st0" d="M568.3,163.4c-21-0.1-37.7,16.4-38,37.2c-0.2,20.5,16.9,37.8,37.5,38c20.6,0.1,37.9-16.9,38-37.4
			C606,180.5,589.1,163.5,568.3,163.4z"/>
	</g>
	<g>
		<path class="st0" d="M484.1,81.6c-21.3-0.3-38.2,15.7-38.5,36.5c-0.3,20.9,16.1,38.1,36.8,38.6c20.9,0.5,38.7-16.9,38.7-37.7
			C521,98.7,504.5,81.9,484.1,81.6z"/>
	</g>
	<g>
		<path class="st0" d="M482.9,163.5c-21,0.1-37.8,17.1-37.3,37.8c0.4,21,17.3,37.6,38,37.4c20.6-0.2,37.8-17.7,37.5-38
			C520.7,179.8,503.9,163.4,482.9,163.5z"/>
	</g>
	<g>
		<path class="st0" d="M653.6,156.7c20.8-0.2,37.3-17.1,37.1-38.1c-0.2-20.9-16.8-37.1-38-37c-21,0.1-37.2,16.7-37.1,37.8
			C615.8,140.2,632.8,156.9,653.6,156.7z"/>
	</g>
	<g>
		<path class="st0" d="M567.7,75.2c21.2,0.2,37.8-16.1,37.9-37c0.1-21.1-16.1-37.9-37-38.2c-20.6-0.3-37.9,16.5-38.1,37.2
			C530.4,58.2,546.8,75.1,567.7,75.2z"/>
	</g>
	<g>
		<path class="st0" d="M653.2,75.3c21,0,37.5-16.6,37.5-37.6c0-20.9-16.8-37.7-37.6-37.7s-37.5,16.8-37.5,37.7
			C615.7,58.7,632.2,75.3,653.2,75.3z"/>
	</g>
	<g>
		<path class="st0" d="M482.8,0c-20.7,0.1-37.3,16.8-37.4,37.4C445.3,58.6,461.8,75,483.1,75c21.2,0,38.1-16.6,38.1-37.5
			C521.2,16.7,503.9-0.1,482.8,0z M483.2,64.3c-15.2,0-27-11.8-26.9-26.9c0.1-14.7,11.9-26.6,26.7-26.7c15-0.1,27.4,11.9,27.4,26.8
			C510.4,52.5,498.4,64.3,483.2,64.3z"/>
	</g>
	<g>
		<path class="st0" d="M652.7,163.6c-20.7,0.1-37.3,16.8-37.4,37.4c-0.1,21.2,16.4,37.6,37.7,37.6c21.2,0,38.1-16.6,38.1-37.5
			C691,180.3,673.8,163.5,652.7,163.6z M653.1,227.9c-15.2,0-27-11.8-26.9-26.9c0.1-14.7,11.9-26.6,26.7-26.7
			c15-0.1,27.4,11.9,27.4,26.8C680.3,216,668.2,227.9,653.1,227.9z"/>
	</g>
</g>
<g>
	<path class="st1" d="M176.1,127.7c-31.7,0-55.7,23.9-55.7,55.7c0,31.7,23.9,55.7,55.7,55.7c16,0,30.5-5.9,40.8-16.6
		c9.9-10.3,15.3-24.1,15.3-39.1c0-14.9-5.4-28.8-15.3-39.1C206.6,133.6,192.1,127.7,176.1,127.7z M176.1,215.3
		c-16.7,0-29.3-13.8-29.3-32s12.6-32,29.3-32c17.2,0,29.8,13.5,29.8,32C205.8,201.9,193.3,215.3,176.1,215.3z"/>
	<path class="st1" d="M257.9,85.2c-5.1,0-8.4,2.6-8.4,6.7v143.4v1h1h12.3c6.8,0,11.6-4.6,11.6-11.3v-54.1H321
		c6.8,0,11.6-4.6,11.6-11.3v-3.9v-0.2V148v-1h-1h-7.9h-49.3v-37.7H334c5.3,0,8.9-3.6,8.9-8.7V86.3v-1h-1L257.9,85.2L257.9,85.2z"/>
	<path class="st1" d="M370.6,131.5c-6.1,0-8.8,4.5-8.8,8.8v95v1h1h15.6c3,0,8.8-1.8,8.8-8.8v-95v-1h-1L370.6,131.5L370.6,131.5z"/>
	<path class="st1" d="M374.7,82.2c-8.8,0-16,7.3-16,16.2c0,8.8,7.2,16,16,16c8.9,0,16.2-7.2,16.2-16
		C390.9,89.4,383.6,82.2,374.7,82.2z"/>
	<path class="st1" d="M604.2,107.9c-2.6-8.2-8.1-15.3-15.2-20c-1-0.7-2.1-1.3-3.2-1.9c-0.5-0.3-1.1-0.6-1.7-0.8
		c-1.1-0.5-2.3-1-3.4-1.4c-2.3-0.8-4.8-1.4-7.3-1.8c-1.9-0.3-3.8-0.4-5.8-0.4c-3.2,0-6.4,0.4-9.4,1.2c-2.4,0.6-4.7,1.5-6.9,2.5
		c-6,2.9-11.1,7.3-14.8,12.8c-0.3,0.5-0.7,1-1,1.5c-3.4,5.6-5.4,12.3-5.5,19.4l0,0c-0.1,21.2,16.4,37.6,37.7,37.6
		c21.2,0,38.1-16.6,38.1-37.5l0,0C606,115.2,605.4,111.5,604.2,107.9z M568,145.4c-14.9,0-26.5-11.5-26.4-26.3
		c0.1-14.5,11.7-26.1,26.2-26.2c14.8-0.1,26.8,11.7,26.9,26.3C594.7,133.8,582.8,145.4,568,145.4z"/>
	<path class="st1" d="M53.6,145.4l-0.5-0.2c-10.5-3.7-21.2-9.1-21.2-20.6c0-4.9,1.6-8.9,4.9-12c3.9-3.6,9.8-5.8,16.7-5.6
		c23.2,0.4,21.6,24.2,21.6,24.2h8.5h8.6c4.5,0,8.6-2.9,9-7.6c0-2.6-1.5-7.6-1.6-7.8c-0.3-0.9-8.3-31.8-46.8-32.5
		c-14.3-0.2-27.7,5.1-36.5,14C9,104.6,5.2,114,5.2,124.4c0,30.6,24.5,38.9,50.3,47.8c9.8,3.4,23.2,8,23.2,22.3
		c0,5.3-1.8,10-5.3,13.6c-4.3,4.5-11,7.1-18.4,7.1c-17.1,0-28.2-11.3-28.2-28.9v-1h-1H9.2H9.1l0,0H1H0v1c0,2.5,0.1,4.9,0.5,7.5
		c0,0.1,0,0.1,0,0.2s0,0.1,0,0.2c0.2,1.7,0.5,3.3,0.8,4.8l0.1,0.3v0.2c0.4,1.6,0.8,3.1,1.2,4.5l0.1,0.2v0.1c1,3.1,2.3,6,3.8,8.7
		c0.7,1.3,1.5,2.5,2.4,3.8l0.1,0.1l0.1,0.2c0.8,1.1,1.7,2.3,2.6,3.4l0.1,0.1l0.2,0.2c0.9,1.1,1.9,2.1,2.9,3.1l0.2,0.2l0.1,0.1
		c1,1,2.1,1.9,3.2,2.8l0.1,0.1l0.1,0.1c1.2,0.9,2.4,1.8,3.5,2.6c2.5,1.6,5.1,3.1,7.9,4.3l0.2,0.1c1.3,0.5,2.6,1.1,4,1.5h0.1l0.2,0.1
		c1.3,0.4,2.7,0.8,4.1,1.2l0.4,0.1c1.4,0.3,2.8,0.6,4.2,0.8h0.2h0.2c1.5,0.2,3,0.4,4.4,0.5l0,0h0.1c1.7,0.1,3.2,0.2,4.7,0.2
		c16.5,0,30.8-5.4,40.4-15.1c8-8.2,12.2-19.2,12.2-31.9C105.4,163.4,76.6,153.4,53.6,145.4z"/>
</g>
</svg>
